<?xml version="1.0" standalone="no"?>
<!DOCTYPE svg PUBLIC "-//W3C//DTD SVG 1.1//EN" "http://www.w3.org/Graphics/SVG/1.1/DTD/svg11.dtd" >
<svg xmlns="http://www.w3.org/2000/svg" xmlns:xlink="http://www.w3.org/1999/xlink" version="1.1">
<metadata>
Created by FontForge 20170731 at Thu Sep  6 21:20:44 1928
 By Aleksey,,,
Generated by Fontographer 3.5
</metadata>
<defs>
<font id="Computer" horiz-adv-x="1125" >
  <font-face 
    font-family="Computer"
    font-weight="400"
    font-stretch="normal"
    units-per-em="1366"
    panose-1="0 0 0 0 0 0 0 0 0 0"
    ascent="1092"
    descent="-274"
    x-height="713"
    cap-height="986"
    bbox="-43 -299 1788 1473"
    underline-thickness="25"
    underline-position="-136"
    unicode-range="U+0020-F001"
  />
<missing-glyph horiz-adv-x="683" 
d="M42 0v986h599v-986h-599zM599 42v902h-515v-902h515z" />
    <glyph glyph-name=".notdef" horiz-adv-x="683" 
d="M42 0v986h599v-986h-599zM599 42v902h-515v-902h515z" />
    <glyph glyph-name=".null" horiz-adv-x="0" 
 />
    <glyph glyph-name="nonmarkingreturn" horiz-adv-x="515" 
 />
    <glyph glyph-name="space" unicode=" " horiz-adv-x="515" 
 />
    <glyph glyph-name="exclam" unicode="!" horiz-adv-x="650" 
d="M521 337h-391v730h266v-445h125v-285zM521 -1h-391v160h391v-160z" />
    <glyph glyph-name="quotedbl" unicode="&#x22;" horiz-adv-x="960" 
d="M840 552h-259v433h259v-433zM380 552h-260v433h260v-433z" />
    <glyph glyph-name="numbersign" unicode="#" horiz-adv-x="1554" 
d="M1433 157h-157v-157h-431v157h-294v-157h-294v157h-137v176h137v299h-137v177h137v176h294v-176h294v176h294v-176h294v-177h-157v-318h157v-157zM826 353v260h-255v-260h255z" />
    <glyph glyph-name="dollar" unicode="$" horiz-adv-x="1068" 
d="M949 158h-239v-159h-350v159h-239v159h478v109h-478v401h239v159h350v-159h239v-128h-589v-143h589v-398z" />
    <glyph glyph-name="percent" unicode="%" horiz-adv-x="1215" 
d="M352 737h-231v264h231v-264zM1094 853l-841 -854h-132v132l841 854h132v-132zM1094 -16h-247v281h247v-281z" />
    <glyph glyph-name="ampersand" unicode="&#x26;" horiz-adv-x="1086" 
d="M1006 -1h-885v426h119v136h-119v289h119v136h527v-153h120v-136h-256v136h-255v-272h374v-136h137v-290h119v-136zM614 152v256h-221v-256h221z" />
    <glyph glyph-name="quotesingle" unicode="'" horiz-adv-x="594" 
d="M475 729l-129 -145h-226v128h45l68 82v192h242v-257z" />
    <glyph glyph-name="parenleft" unicode="(" horiz-adv-x="687" 
d="M634 0h-68q-77 0 -156 28q-120 42 -190 136q-93 123 -93 324q0 183 92 308q70 95 187 150q86 40 143 40h85v-103q-111 -26 -153 -49q-61 -33 -87 -102t-26 -212q0 -213 41 -285q52 -92 225 -115v-120z" />
    <glyph glyph-name="parenright" unicode=")" horiz-adv-x="687" 
d="M537 488q0 -201 -92 -323q-71 -95 -190 -137q-78 -28 -157 -28h-68v120q174 23 225 114q41 72 41 286q0 144 -25.5 212.5t-86.5 101.5q-41 22 -154 49v103h85q58 0 142 -39q116 -54 187 -151q93 -127 93 -308z" />
    <glyph glyph-name="asterisk" unicode="*" horiz-adv-x="1041" 
d="M922 528h-259l163 -221v-109h-108l-204 272l-190 -272h-109v109l150 221h-245v123h258l-168 226v109h114l190 -245l176 245h136v-109l-163 -228h259v-121z" />
    <glyph glyph-name="plus" unicode="+" horiz-adv-x="1082" 
d="M954 460h-150v-318h-411v318h-262v149h281v318h262v-318h280v-149z" />
    <glyph glyph-name="comma" unicode="," horiz-adv-x="597" 
d="M475 145l-129 -145h-226v128h45l68 82v192h242v-257z" />
    <glyph glyph-name="hyphen" unicode="-" horiz-adv-x="996" 
d="M872 256h-752v273h752v-273z" />
    <glyph glyph-name="period" unicode="." horiz-adv-x="673" 
d="M543 0h-413v338h413v-338z" />
    <glyph glyph-name="slash" unicode="/" horiz-adv-x="1462" 
d="M1335 923l-1059 -924h-146v146l1058 924h147v-146z" />
    <glyph glyph-name="zero" unicode="0" 
d="M1005 -1h-885v987h885v-987zM749 595v238h-357v-681h221v443h136z" />
    <glyph glyph-name="one" unicode="1" horiz-adv-x="666" 
d="M537 0h-406v610h129v310h-129v147h406v-1067z" />
    <glyph glyph-name="two" unicode="2" horiz-adv-x="1069" 
d="M939 -1h-809v607h552v315h-552v147h809v-628h-404v-294h404v-147z" />
    <glyph glyph-name="three" unicode="3" horiz-adv-x="1095" 
d="M965 -1h-835v148h408v297h-278v168h427v288h-557v167h835v-1068z" />
    <glyph glyph-name="four" unicode="4" horiz-adv-x="1300" 
d="M1217 294h-129v-295h-406v460h-551v609h258v-443h422v443h277v-609h129v-165z" />
    <glyph glyph-name="five" unicode="5" horiz-adv-x="1011" 
d="M891 -1h-771v154h377v272h-377v561h771v-137h-514v-287h514v-563z" />
    <glyph glyph-name="six" unicode="6" 
d="M1006 -1h-885v987h885v-289h-256v153h-374v-289h630v-562zM733 152v256h-221v-256h221z" />
    <glyph glyph-name="seven" unicode="7" horiz-adv-x="1110" 
d="M990 0h-377v561h120v271h-395v-138h-257v292h909v-986z" />
    <glyph glyph-name="eight" unicode="8" 
d="M1006 -1h-885v987h885v-987zM750 578v255h-357v-255h357zM614 152v239h-221v-239h221z" />
    <glyph glyph-name="nine" unicode="9" 
d="M1006 0h-885v272h255v-136h255v290h-510v561h885v-987zM733 596v238h-340v-238h340z" />
    <glyph glyph-name="colon" unicode=":" horiz-adv-x="576" 
d="M474 460h-374v272h374v-272zM474 -1h-374v273h374v-273z" />
    <glyph glyph-name="semicolon" unicode=";" horiz-adv-x="576" 
d="M451 460h-239v272h239v-272zM455 145l-129 -145h-226v128h45l68 82v132h242v-197z" />
    <glyph glyph-name="less" unicode="&#x3c;" horiz-adv-x="825" 
d="M706 790l-471 -303l468 -303v-174l-603 402v148l606 417v-187z" />
    <glyph glyph-name="equal" unicode="=" horiz-adv-x="890" 
d="M784 596h-676v150h676v-150zM784 277h-676v150h676v-150z" />
    <glyph glyph-name="greater" unicode="&#x3e;" horiz-adv-x="822" 
d="M723 412l-603 -402v174l468 303l-470 303l-1 187l606 -417v-148z" />
    <glyph glyph-name="question" unicode="?" horiz-adv-x="1056" 
d="M925 479h-142v-159h-391v301h267v305h-267v-142h-284v284h817v-589zM783 0h-391v142h391v-142z" />
    <glyph glyph-name="at" unicode="@" horiz-adv-x="1356" 
d="M1256 271h-746v424h373v155h-509v-715h746v-135h-881v135h-119v715h136v136h881v-291h119v-424zM866 440v102h-102v-102h102z" />
    <glyph glyph-name="A" unicode="A" 
d="M1005 -1h-375v426h-255v-426h-255v987h885v-987zM732 578v238h-340v-238h340z" />
    <glyph glyph-name="B" unicode="B" horiz-adv-x="1104" 
d="M1005 -1h-885v987h766v-427h119v-560zM613 578v238h-221v-238h221zM613 152v256h-221v-256h221z" />
    <glyph glyph-name="C" unicode="C" horiz-adv-x="1199" 
d="M1089 -1h-959v1069h959v-295h-278v148h-423v-311h147v-464h276v148h278v-295z" />
    <glyph glyph-name="D" unicode="D" 
d="M1006 136h-136v-136h-749v987h766v-153h119v-698zM750 153v681h-357v-270h136v-411h221z" />
    <glyph glyph-name="E" unicode="E" horiz-adv-x="1046" 
d="M940 0h-809v1067h809v-147h-533v-313h405v-166h-276v-294h404v-147z" />
    <glyph glyph-name="F" unicode="F" horiz-adv-x="966" 
d="M867 849h-492v-289h374v-153h-255v-407h-374v985h747v-136z" />
    <glyph glyph-name="G" unicode="G" 
d="M1006 -1h-885v987h885v-272h-239v136h-391v-425h119v-273h255v273h-119v153h375v-579z" />
    <glyph glyph-name="H" unicode="H" horiz-adv-x="1104" 
d="M1006 0h-392v411h-238v-411h-255v987h255v-423h238v423h273v-426h119v-561z" />
    <glyph glyph-name="I" unicode="I" horiz-adv-x="615" 
d="M514 0h-394v986h257v-422h137v-564z" />
    <glyph glyph-name="J" unicode="J" horiz-adv-x="1104" 
d="M1005 -1h-885v289h255v-136h255v834h256v-426h119v-561z" />
    <glyph glyph-name="K" unicode="K" horiz-adv-x="1128" 
d="M1005 -1h-239v426h-272v-426h-374v987h255v-408h391v408h239v-391h-119v-187h119v-409z" />
    <glyph glyph-name="L" unicode="L" horiz-adv-x="966" 
d="M868 -1h-747v987h255v-424h119v-410h373v-153z" />
    <glyph glyph-name="M" unicode="M" horiz-adv-x="1917" 
d="M1788 0h-276v922h-406v-922h-295v922h-405v-313h129v-609h-405v1069h1658v-1069z" />
    <glyph glyph-name="N" unicode="N" 
d="M1005 -1h-256v851h-374v-287h119v-564h-374v987h885v-987z" />
    <glyph glyph-name="O" unicode="O" horiz-adv-x="1149" 
d="M1030 0h-909v985h909v-985zM756 560v271h-361v-659h241v388h120z" />
    <glyph glyph-name="P" unicode="P" horiz-adv-x="1107" 
d="M1006 408h-511v-409h-374v987h885v-578zM733 595v238h-340v-238h340z" />
    <glyph glyph-name="Q" unicode="Q" horiz-adv-x="1242" 
d="M1147 -154h-495v154h-532v987h907v-988h120v-153zM754 560v255h-360v-660h240v405h120z" />
    <glyph glyph-name="R" unicode="R" horiz-adv-x="1219" 
d="M1090 -1h-278v461h-276v-461h-405v1069h811v-166h148v-276h-129v-184h129v-443zM794 645v257h-368v-257h368z" />
    <glyph glyph-name="S" unicode="S" 
d="M1005 -1h-885v289h255v-136h255v273h-510v561h885v-272h-239v136h-391v-272h630v-579z" />
    <glyph glyph-name="T" unicode="T" horiz-adv-x="1227" 
d="M1127 832h-394v-272h120v-561h-376v833h-377v154h1027v-154z" />
    <glyph glyph-name="U" unicode="U" horiz-adv-x="1149" 
d="M1029 0h-909v987h257v-850h258v423h137v427h257v-987z" />
    <glyph glyph-name="V" unicode="V" horiz-adv-x="1230" 
d="M1127 289l-257 -289h-376q-3 1 -104 116q-94 107 -188 215l-102 116v539h257v-516l171 -168h207l135 150v534h257v-697z" />
    <glyph glyph-name="W" unicode="W" horiz-adv-x="1773" 
d="M1652 -1h-1531v987h255v-423h119v-427h272v850h238v-850h392v850h255v-987z" />
    <glyph glyph-name="X" unicode="X" horiz-adv-x="1224" 
d="M1113 3h-306l1 112l-193 231l-215 -237l1 -109h-300v153l86 -1l312 333l-294 351h-104v151h260v-67l265 -300l272 291v76h215v-151h-53l-317 -349l292 -330h78v-154z" />
    <glyph glyph-name="Y" unicode="Y" horiz-adv-x="1329" 
d="M1221 463h-279v-464h-407v464h-427v605h279v-439h555v439h279v-605z" />
    <glyph glyph-name="Z" unicode="Z" horiz-adv-x="1086" 
d="M985 -1h-885v153l612 690h-612v144h885v-170l-579 -672h579v-145z" />
    <glyph glyph-name="bracketleft" unicode="[" horiz-adv-x="849" 
d="M748 0h-628v985h628v-136h-390v-287h136v-443h254v-119z" />
    <glyph glyph-name="backslash" unicode="\" horiz-adv-x="1191" 
d="M1111 -1h-269v110l-642 710h-119v166h205l754 -837h71v-149z" />
    <glyph glyph-name="bracketright" unicode="]" horiz-adv-x="849" 
d="M728 0h-628v119h255v444h136v286h-391v136h628v-985z" />
    <glyph glyph-name="asciicircum" unicode="^" horiz-adv-x="948" 
d="M848 559h-185q-44 46 -87 93q-42 42 -89 42q-57 0 -98 -43q-43 -51 -79 -92h-218v51q28 28 258 276q87 94 128 94q35 0 74 -39q13 -13 106.5 -124t189.5 -207v-51z" />
    <glyph glyph-name="underscore" unicode="_" horiz-adv-x="894" 
d="M895 -277h-895v135h895v-135z" />
    <glyph glyph-name="grave" unicode="`" horiz-adv-x="558" 
d="M468 714h-238l-129 272h242z" />
    <glyph glyph-name="a" unicode="a" horiz-adv-x="1128" 
d="M1040 -1h-931v460h530v166h-530v146h803v-312h128v-460zM620 164v131h-238v-131h238z" />
    <glyph glyph-name="b" unicode="b" horiz-adv-x="1065" 
d="M985 0h-885v987h255v-274h630v-713zM712 424v136h-340v-407h221v271h119z" />
    <glyph glyph-name="c" unicode="c" horiz-adv-x="1024" 
d="M937 0h-829v772h829v-147h-552v-166h128v-312h424v-147z" />
    <glyph glyph-name="d" unicode="d" horiz-adv-x="1107" 
d="M1009 -1h-909v713h652v274h257v-987zM717 424v133h-343v-403h223v270h120z" />
    <glyph glyph-name="e" unicode="e" horiz-adv-x="1167" 
d="M1055 -1h-947v773h947v-436h-527v-192h527v-145zM764 499v110h-219v-110h219z" />
    <glyph glyph-name="f" unicode="f" horiz-adv-x="885" 
d="M826 853h-370v-140h236v-134h-236v-154h118v-426h-370v580h-134v134h134v274h622v-134z" />
    <glyph glyph-name="g" unicode="g" horiz-adv-x="1203" 
d="M1103 -276h-1003v173h579v181h-579v636h1003v-990zM794 425v115h-385v-289h250v174h135z" />
    <glyph glyph-name="h" unicode="h" horiz-adv-x="1083" 
d="M985 -1h-392v426h136v153h-374v-579h-255v987h255v-272h630v-715z" />
    <glyph glyph-name="i" unicode="i" horiz-adv-x="604" 
d="M386 921h-277v147h277v-147zM516 0h-407v772h277v-313h130v-459z" />
    <glyph glyph-name="j" unicode="j" horiz-adv-x="1056" 
d="M850 836h-250v150h250v-150zM967 -1h-867v267h250v-133h250v580h250v-287h117v-427z" />
    <glyph glyph-name="k" unicode="k" horiz-adv-x="1056" 
d="M967 0h-367v274h-250v-274h-250v986h250v-562h250v288h250v-288h117v-424z" />
    <glyph glyph-name="l" unicode="l" horiz-adv-x="549" 
d="M469 -1h-368v986h251v-559h117v-427z" />
    <glyph glyph-name="m" unicode="m" horiz-adv-x="1545" 
d="M1465 0h-371v577h-236v-577h-269v577h-253v-577h-236v712h1247v-287h118v-425z" />
    <glyph glyph-name="n" unicode="n" horiz-adv-x="1095" 
d="M1014 -1h-372v578h-288v-578h-254v714h796v-288h118v-426z" />
    <glyph glyph-name="o" unicode="o" horiz-adv-x="1167" 
d="M1056 -1h-947v773h947v-773zM765 459v167h-365v-445h237v278h128z" />
    <glyph glyph-name="p" unicode="p" horiz-adv-x="1092" 
d="M991 -1h-504v-275h-387v988h891v-713zM722 157v404h-336v-136h118v-268h218z" />
    <glyph glyph-name="q" unicode="q" horiz-adv-x="1068" 
d="M967 -276h-383v276h-484v713h867v-989zM700 426v137h-333v-400h217v263h116z" />
    <glyph glyph-name="r" unicode="r" horiz-adv-x="786" 
d="M708 565h-345v-141h98v-424h-360v713h607v-148z" />
    <glyph glyph-name="s" unicode="s" horiz-adv-x="924" 
d="M844 -1h-743v133h363v145h-363v436h611v-149h-364v-138h496v-427z" />
    <glyph glyph-name="t" unicode="t" horiz-adv-x="771" 
d="M700 577h-239v-152h120v-425h-391v577h-120v137h136v137h238v-137h256v-137z" />
    <glyph glyph-name="u" unicode="u" horiz-adv-x="1086" 
d="M988 -1h-887v715h251v-581h251v293h151v288h234v-715z" />
    <glyph glyph-name="v" unicode="v" horiz-adv-x="1056" 
d="M979 274l-257 -275h-374l-267 277v437h281l-1 -331l89 -98h49l82 85v344h398v-439z" />
    <glyph glyph-name="w" unicode="w" horiz-adv-x="1560" 
d="M1480 0h-1379v713h252v-578h252v578h252v-578h253v578h252v-288h118v-425z" />
    <glyph glyph-name="x" unicode="x" horiz-adv-x="909" 
d="M833 0h-240l-143 233l-123 -233h-246v132h66l194 248l-147 185h-113v148h235l136 -185l133 185h244v-150h-110l-155 -187l190 -241h79v-135z" />
    <glyph glyph-name="y" unicode="y" horiz-adv-x="1185" 
d="M1104 -275h-849v154h425v178h-579v656h289v-501h290v501h289v-288h135v-700z" />
    <glyph glyph-name="z" unicode="z" horiz-adv-x="897" 
d="M820 -1h-739v134l419 421h-419v159h739v-185l-370 -385h370v-144z" />
    <glyph glyph-name="braceleft" unicode="{" horiz-adv-x="936" 
d="M855 0h-615v425h-120v156h120v405h615v-120h-376v-441h136v-288h240v-137z" />
    <glyph glyph-name="bar" unicode="|" horiz-adv-x="576" 
d="M376 579h-255v408h255v-408zM496 0h-375v426h375v-426z" />
    <glyph glyph-name="braceright" unicode="}" horiz-adv-x="936" 
d="M816 425h-120v-425h-615v137h239v288h137v441h-376v120h615v-405h120v-156z" />
    <glyph glyph-name="asciitilde" unicode="~" horiz-adv-x="1257" 
d="M1154 888l-236 -225h-290l-115 131l-116 -1l-99 -122h-198v154h85l125 156h234l172 -173l87 1l167 171h184v-92z" />
    <glyph glyph-name="exclamdown" unicode="&#xa1;" horiz-adv-x="600" 
d="M486 562h-361v148h361v-148zM486 -276h-246v411h-115v263h361v-674z" />
    <glyph glyph-name="cent" unicode="&#xa2;" horiz-adv-x="945" 
d="M865 0h-133v-277h-255v277h-377v713h377v273h255v-273h133v-136h-510v-153h119v-288h391v-136z" />
    <glyph glyph-name="sterling" unicode="&#xa3;" horiz-adv-x="1078" 
d="M972 -1h-871v137h123v291h-125v136l127 1l-1 422h747v-136h-510v-286h264v-137h-153l1 -289l398 -1v-138z" />
    <glyph glyph-name="yen" unicode="&#xa5;" horiz-adv-x="1388" 
d="M1308 308l-1 -153h-357v-156h-376v156h-494v153h494v119h-494v153h100v406h257v-405h513v405h257l1 -406h100l-1 -153h-357v-119h358z" />
    <glyph glyph-name="dieresis" unicode="&#xa8;" horiz-adv-x="1041" 
d="M766 828h-191v156h191v-156zM358 828h-191v156h191v-156z" />
    <glyph glyph-name="copyright" unicode="&#xa9;" horiz-adv-x="1132" 
d="M1080 490q0 -212 -149 -361t-361 -149t-361 149t-149 361t149 361t361 149t361 -149t149 -361zM1010 488q0 182 -129 311t-311 129t-311 -129t-129 -311t129 -311t311 -129t311 129t129 311zM789 243h-443v494h443v-136h-128v68h-196v-143h68v-214h128v68h128v-137z" />
    <glyph glyph-name="ordfeminine" unicode="&#xaa;" horiz-adv-x="652" 
d="M571 573h-492v254h269v64h-269v95h427v-159h65v-254zM338 677v47h-101v-47h101z" />
    <glyph glyph-name="registered" unicode="&#xae;" horiz-adv-x="1140" 
d="M1080 490q0 -212 -149 -361t-361 -149t-361 149t-149 361t149 361t361 149t361 -149t149 -361zM1010 488q0 182 -129 311t-311 129t-311 -129t-129 -311t129 -311t311 -129t311 129t129 311zM791 243h-128v214h-127v-214h-187v494h374v-76h68v-128h-59v-85h59v-205z
M655 542v119h-170v-119h170z" />
    <glyph glyph-name="plusminus" unicode="&#xb1;" horiz-adv-x="999" 
d="M881 555h-139v-294h-379v294h-242v137h259v294h242v-294h259v-137zM883 -1h-764v138h764v-138z" />
    <glyph glyph-name="twosuperior" unicode="&#xb2;" horiz-adv-x="596" 
d="M512 424h-431v328h281v141h-281v94h431v-339h-205v-129h205v-95z" />
    <glyph glyph-name="threesuperior" unicode="&#xb3;" horiz-adv-x="604" 
d="M523 424h-444v96h207v131h-141v105h217v126h-283v105h444v-563z" />
    <glyph glyph-name="acute" unicode="&#xb4;" horiz-adv-x="558" 
d="M469 986l-129 -272h-238l125 272h242z" />
    <glyph glyph-name="cedilla" unicode="&#xb8;" horiz-adv-x="406" 
d="M298 -160l-81 -91h-142v81h27l44 52v120h152v-162z" />
    <glyph glyph-name="onesuperior" unicode="&#xb9;" horiz-adv-x="420" 
d="M331 460h-244v358h70v148h-70v103h244v-609z" />
    <glyph glyph-name="ordmasculine" unicode="&#xba;" horiz-adv-x="693" 
d="M628 623h-541v447h541v-447zM446 898v70h-178v-223h108v153h70z" />
    <glyph glyph-name="onequarter" unicode="&#xbc;" horiz-adv-x="1638" 
d="M1558 149h-66v-150h-225v234h-280v329h150v-225h195v225h160v-309h66v-104zM1202 852l-977 -853h-105v135l977 853h105v-135zM331 460h-244v358h70v148h-70v103h244v-609z" />
    <glyph glyph-name="onehalf" unicode="&#xbd;" horiz-adv-x="1496" 
d="M1202 852l-977 -853h-105v135l977 853h105v-135zM1402 0h-431v328h281v141h-281v94h431v-339h-205v-129h205v-95zM331 460h-244v358h70v148h-70v103h244v-609z" />
    <glyph glyph-name="threequarters" unicode="&#xbe;" horiz-adv-x="1746" 
d="M1678 149h-66v-150h-225v234h-280v329h150v-225h195v225h160v-309h66v-104zM1342 852l-977 -853h-105v135l977 853h105v-135zM523 424h-444v96h207v131h-141v105h217v126h-283v105h444v-563z" />
    <glyph glyph-name="questiondown" unicode="&#xbf;" horiz-adv-x="975" 
d="M620 581h-361v131h361v-131zM882 -274h-754v544h131v147h361v-278h-246v-282h246v131h262v-262z" />
    <glyph glyph-name="Agrave" unicode="&#xc0;" 
d="M1005 -1h-375v426h-255v-426h-255v987h885v-987zM732 578v238h-340v-238h340zM680 1086h-238l-129 272h242z" />
    <glyph glyph-name="Aacute" unicode="&#xc1;" 
d="M1005 -1h-375v426h-255v-426h-255v987h885v-987zM732 578v238h-340v-238h340zM825 1358l-129 -272h-238l125 272h242z" />
    <glyph glyph-name="Acircumflex" unicode="&#xc2;" 
d="M1005 -1h-375v426h-255v-426h-255v987h885v-987zM732 578v238h-340v-238h340zM765 1087h-137l-69 87l-72 -87h-130l130 188h149z" />
    <glyph glyph-name="Atilde" unicode="&#xc3;" 
d="M1005 -1h-375v426h-255v-426h-255v987h885v-987zM732 578v238h-340v-238h340zM775 1261q-37 -170 -140 -170q-26 0 -48 8q-6 2 -42 19q-16 10 -27.5 14t-18.5 4q-22 0 -33.5 -9t-23.5 -35h-87q22 90 55.5 130.5t86.5 40.5q25 0 87 -28q30 -14 53 -16q19 0 29 8t23 34h86z
" />
    <glyph glyph-name="Adieresis" unicode="&#xc4;" 
d="M1005 -1h-375v426h-255v-426h-255v987h885v-987zM732 578v238h-340v-238h340zM862 1088h-191v156h191v-156zM454 1088h-191v156h191v-156z" />
    <glyph glyph-name="Aring" unicode="&#xc5;" 
d="M1005 -1h-375v426h-255v-426h-255v987h885v-987zM732 578v238h-340v-238h340zM796 1088h-440v385h440v-385zM658 1379h-165v-178h164z" />
    <glyph glyph-name="AE" unicode="&#xc6;" horiz-adv-x="1578" 
d="M1497 0l-867 -1v426h-255v-426h-255v987h1377v-136h-492v-289h374v-153h-255v-271h373v-137zM732 578v238h-340v-238h340z" />
    <glyph glyph-name="Ccedilla" unicode="&#xc7;" horiz-adv-x="1107" 
d="M1089 -1h-959v1069h959v-295h-278v148h-423v-311h147v-464h276v148h278v-295zM652 -208l-81 -91h-142v81h27l44 52v120h152v-162z" />
    <glyph glyph-name="Egrave" unicode="&#xc8;" horiz-adv-x="966" 
d="M940 0h-809v1067h809v-147h-533v-313h405v-166h-276v-294h404v-147zM632 1086h-238l-129 272h242z" />
    <glyph glyph-name="Eacute" unicode="&#xc9;" horiz-adv-x="966" 
d="M940 0h-809v1067h809v-147h-533v-313h405v-166h-276v-294h404v-147zM769 1358l-129 -272h-238l125 272h242z" />
    <glyph glyph-name="Ecircumflex" unicode="&#xca;" horiz-adv-x="966" 
d="M940 0h-809v1067h809v-147h-533v-313h405v-166h-276v-294h404v-147zM711 1087h-137l-69 87l-72 -87h-130l130 188h149z" />
    <glyph glyph-name="Edieresis" unicode="&#xcb;" horiz-adv-x="966" 
d="M940 0h-809v1067h809v-147h-533v-313h405v-166h-276v-294h404v-147zM790 1088h-191v156h191v-156zM382 1088h-191v156h191v-156z" />
    <glyph glyph-name="Igrave" unicode="&#xcc;" horiz-adv-x="615" 
d="M514 0h-394v986h257v-422h137v-564zM360 1086h-238l-129 272h242z" />
    <glyph glyph-name="Iacute" unicode="&#xcd;" horiz-adv-x="615" 
d="M514 0h-394v986h257v-422h137v-564zM501 1358l-129 -272h-238l125 272h242z" />
    <glyph glyph-name="Icircumflex" unicode="&#xce;" horiz-adv-x="615" 
d="M514 0h-394v986h257v-422h137v-564zM477 1090h-137l-69 87l-72 -87h-130l130 188h149z" />
    <glyph glyph-name="Idieresis" unicode="&#xcf;" horiz-adv-x="615" 
d="M514 0h-394v986h257v-422h137v-564zM578 1088h-191v156h191v-156zM170 1088h-191v156h191v-156z" />
    <glyph glyph-name="Ntilde" unicode="&#xd1;" 
d="M1005 -1h-256v851h-374v-287h119v-564h-374v987h885v-987zM760 1256q-37 -170 -140 -170q-26 0 -48 8q-6 2 -42 19q-16 10 -27.5 14t-18.5 4q-22 0 -33.5 -9t-23.5 -35h-87q22 90 55.5 130.5t86.5 40.5q25 0 87 -28q30 -14 53 -16q19 0 29 8t23 34h86z" />
    <glyph glyph-name="Ograve" unicode="&#xd2;" horiz-adv-x="1149" 
d="M1030 0h-909v985h909v-985zM756 560v271h-361v-659h241v388h120zM676 1086h-238l-129 272h242z" />
    <glyph glyph-name="Oacute" unicode="&#xd3;" horiz-adv-x="1149" 
d="M1030 0h-909v985h909v-985zM756 560v271h-361v-659h241v388h120zM813 1358l-129 -272h-238l125 272h242z" />
    <glyph glyph-name="Ocircumflex" unicode="&#xd4;" horiz-adv-x="1149" 
d="M1030 0h-909v985h909v-985zM756 560v271h-361v-659h241v388h120zM759 1087h-137l-69 87l-72 -87h-130l130 188h149z" />
    <glyph glyph-name="Otilde" unicode="&#xd5;" horiz-adv-x="1149" 
d="M1030 0h-909v985h909v-985zM756 560v271h-361v-659h241v388h120zM765 1256q-37 -170 -140 -170q-26 0 -48 8q-6 2 -42 19q-16 10 -27.5 14t-18.5 4q-22 0 -33.5 -9t-23.5 -35h-87q22 90 55.5 130.5t86.5 40.5q25 0 87 -28q30 -14 53 -16q19 0 29 8t23 34h86z" />
    <glyph glyph-name="Odieresis" unicode="&#xd6;" horiz-adv-x="1149" 
d="M1030 0h-909v985h909v-985zM756 560v271h-361v-659h241v388h120zM854 1088h-191v156h191v-156zM446 1088h-191v156h191v-156z" />
    <glyph glyph-name="Oslash" unicode="&#xd8;" horiz-adv-x="1215" 
d="M1162 852l-82 -71v-781l-1030 -1v135l121 105v746l991 2v-135zM796 786v45h-361v-360zM676 172v258l-241 -212v-46h241z" />
    <glyph glyph-name="Ugrave" unicode="&#xd9;" horiz-adv-x="1149" 
d="M1029 0h-909v987h257v-850h258v423h137v427h257v-987zM680 1086h-238l-129 272h242z" />
    <glyph glyph-name="Uacute" unicode="&#xda;" horiz-adv-x="1149" 
d="M1029 0h-909v987h257v-850h258v423h137v427h257v-987zM829 1358l-129 -272h-238l125 272h242z" />
    <glyph glyph-name="Ucircumflex" unicode="&#xdb;" horiz-adv-x="1149" 
d="M1029 0h-909v987h257v-850h258v423h137v427h257v-987zM774 1087h-137l-69 87l-72 -87h-130l130 188h149z" />
    <glyph glyph-name="Udieresis" unicode="&#xdc;" horiz-adv-x="1149" 
d="M1029 0h-909v987h257v-850h258v423h137v427h257v-987zM870 1088h-191v156h191v-156zM462 1088h-191v156h191v-156z" />
    <glyph glyph-name="Yacute" unicode="&#xdd;" horiz-adv-x="1227" 
d="M1221 463h-279v-464h-407v464h-427v605h279v-439h555v439h279v-605zM873 1358l-129 -272h-238l125 272h242z" />
    <glyph glyph-name="germandbls" unicode="&#xdf;" horiz-adv-x="1104" 
d="M1005 -1l-529 1v152h137v271h-137v142l137 -2v253h-221v-1091l-272 -1v1262h766v-427h119v-560z" />
    <glyph glyph-name="agrave" unicode="&#xe0;" horiz-adv-x="1041" 
d="M1040 -1h-931v460h530v166h-530v146h803v-312h128v-460zM620 164v131h-238v-131h238zM588 814h-238l-129 272h242z" />
    <glyph glyph-name="aacute" unicode="&#xe1;" horiz-adv-x="1041" 
d="M1040 -1h-931v460h530v166h-530v146h803v-312h128v-460zM620 164v131h-238v-131h238zM729 1086l-129 -272h-238l125 272h242z" />
    <glyph glyph-name="acircumflex" unicode="&#xe2;" horiz-adv-x="1041" 
d="M1040 -1h-931v460h530v166h-530v146h803v-312h128v-460zM620 164v131h-238v-131h238zM696 793h-137l-69 87l-72 -87h-130l130 188h149z" />
    <glyph glyph-name="atilde" unicode="&#xe3;" horiz-adv-x="1041" 
d="M1040 -1h-931v460h530v166h-530v146h803v-312h128v-460zM620 164v131h-238v-131h238zM690 976q-37 -170 -140 -170q-26 0 -48 8q-6 2 -42 19q-16 10 -27.5 14t-18.5 4q-22 0 -33.5 -9t-23.5 -35h-87q22 90 55.5 130.5t86.5 40.5q25 0 87 -28q30 -14 53 -16q19 0 29 8
t23 34h86z" />
    <glyph glyph-name="adieresis" unicode="&#xe4;" horiz-adv-x="1041" 
d="M1040 -1h-931v460h530v166h-530v146h803v-312h128v-460zM620 164v131h-238v-131h238zM766 828h-191v156h191v-156zM358 828h-191v156h191v-156z" />
    <glyph glyph-name="aring" unicode="&#xe5;" horiz-adv-x="1041" 
d="M1040 -1h-931v460h530v166h-530v146h803v-312h128v-460zM620 164v131h-238v-131h238zM700 819h-440v385h440v-385zM562 1110h-165v-178h164z" />
    <glyph glyph-name="ae" unicode="&#xe6;" horiz-adv-x="1521" 
d="M1437 -1h-1336v425h489v153h-489v135l1336 1v-403h-487v-177h487v-134zM1168 461v101h-202v-101h202zM572 151v121h-219v-121h219z" />
    <glyph glyph-name="ccedilla" unicode="&#xe7;" horiz-adv-x="945" 
d="M937 0h-829v772h829v-147h-552v-166h128v-312h424v-147zM622 -202l-81 -91h-142v81h27l44 52v120h152v-162z" />
    <glyph glyph-name="egrave" unicode="&#xe8;" horiz-adv-x="1077" 
d="M1055 -1h-947v773h947v-436h-527v-192h527v-145zM764 499v110h-219v-110h219zM652 814h-238l-129 272h242z" />
    <glyph glyph-name="eacute" unicode="&#xe9;" horiz-adv-x="1077" 
d="M1055 -1h-947v773h947v-436h-527v-192h527v-145zM764 499v110h-219v-110h219zM813 1086l-129 -272h-238l125 272h242z" />
    <glyph glyph-name="ecircumflex" unicode="&#xea;" horiz-adv-x="1077" 
d="M1055 -1h-947v773h947v-436h-527v-192h527v-145zM764 499v110h-219v-110h219zM759 790h-137l-69 87l-72 -87h-130l130 188h149z" />
    <glyph glyph-name="edieresis" unicode="&#xeb;" horiz-adv-x="1077" 
d="M1055 -1h-947v773h947v-436h-527v-192h527v-145zM764 499v110h-219v-110h219zM826 828h-191v156h191v-156zM418 828h-191v156h191v-156z" />
    <glyph glyph-name="igrave" unicode="&#xec;" horiz-adv-x="558" 
d="M476 0h-375v713h255v-289h120v-424zM344 814h-238l-129 272h242z" />
    <glyph glyph-name="iacute" unicode="&#xed;" horiz-adv-x="558" 
d="M476 0h-375v713h255v-289h120v-424zM489 1086l-129 -272h-238l125 272h242z" />
    <glyph glyph-name="icircumflex" unicode="&#xee;" horiz-adv-x="558" 
d="M476 0h-375v713h255v-289h120v-424zM459 799h-137l-69 87l-72 -87h-130l130 188h149z" />
    <glyph glyph-name="idieresis" unicode="&#xef;" horiz-adv-x="558" 
d="M476 0h-375v713h255v-289h120v-424zM556 828h-191v156h191v-156zM148 828h-191v156h191v-156z" />
    <glyph glyph-name="ntilde" unicode="&#xf1;" horiz-adv-x="1095" 
d="M1014 -1h-372v578h-288v-578h-254v714h796v-288h118v-426zM715 981q-37 -170 -140 -170q-26 0 -48 8q-6 2 -42 19q-16 10 -27.5 14t-18.5 4q-22 0 -33.5 -9t-23.5 -35h-87q22 90 55.5 130.5t86.5 40.5q25 0 87 -28q30 -14 53 -16q19 0 29 8t23 34h86z" />
    <glyph glyph-name="ograve" unicode="&#xf2;" horiz-adv-x="1077" 
d="M1056 -1h-947v773h947v-773zM765 459v167h-365v-445h237v278h128zM628 814h-238l-129 272h242z" />
    <glyph glyph-name="oacute" unicode="&#xf3;" horiz-adv-x="1077" 
d="M1056 -1h-947v773h947v-773zM765 459v167h-365v-445h237v278h128zM769 1086l-129 -272h-238l125 272h242z" />
    <glyph glyph-name="ocircumflex" unicode="&#xf4;" horiz-adv-x="1077" 
d="M1056 -1h-947v773h947v-773zM765 459v167h-365v-445h237v278h128zM735 793h-137l-69 87l-72 -87h-130l130 188h149z" />
    <glyph glyph-name="otilde" unicode="&#xf5;" horiz-adv-x="1077" 
d="M1056 -1h-947v773h947v-773zM765 459v167h-365v-445h237v278h128zM740 981q-37 -170 -140 -170q-26 0 -48 8q-6 2 -42 19q-16 10 -27.5 14t-18.5 4q-22 0 -33.5 -9t-23.5 -35h-87q22 90 55.5 130.5t86.5 40.5q25 0 87 -28q30 -14 53 -16q19 0 29 8t23 34h86z" />
    <glyph glyph-name="odieresis" unicode="&#xf6;" horiz-adv-x="1077" 
d="M1056 -1h-947v773h947v-773zM765 459v167h-365v-445h237v278h128zM814 828h-191v156h191v-156zM406 828h-191v156h191v-156z" />
    <glyph glyph-name="oslash" unicode="&#xf8;" horiz-adv-x="1196" 
d="M1136 577l-101 -62v-516h-975v135l101 62v517l975 -1v-135zM766 568v10h-337v-217zM648 167v110l-180 -110h180z" />
    <glyph glyph-name="ugrave" unicode="&#xf9;" horiz-adv-x="1086" 
d="M988 -1h-887v715h251v-581h251v293h151v288h234v-715zM664 814h-238l-129 272h242z" />
    <glyph glyph-name="uacute" unicode="&#xfa;" horiz-adv-x="1086" 
d="M988 -1h-887v715h251v-581h251v293h151v288h234v-715zM805 1086l-129 -272h-238l125 272h242z" />
    <glyph glyph-name="ucircumflex" unicode="&#xfb;" horiz-adv-x="1086" 
d="M988 -1h-887v715h251v-581h251v293h151v288h234v-715zM753 793h-137l-69 87l-72 -87h-130l130 188h149z" />
    <glyph glyph-name="udieresis" unicode="&#xfc;" horiz-adv-x="1086" 
d="M988 -1h-887v715h251v-581h251v293h151v288h234v-715zM842 828h-191v156h191v-156zM434 828h-191v156h191v-156z" />
    <glyph glyph-name="yacute" unicode="&#xfd;" horiz-adv-x="1185" 
d="M1104 -275h-849v154h425v178h-579v656h289v-501h290v501h289v-288h135v-700zM797 1086l-129 -272h-238l125 272h242z" />
    <glyph glyph-name="ydieresis" unicode="&#xff;" horiz-adv-x="1185" 
d="M1104 -275h-849v154h425v178h-579v656h289v-501h290v501h289v-288h135v-700zM834 828h-191v156h191v-156zM426 828h-191v156h191v-156z" />
    <glyph glyph-name="dotlessi" unicode="&#x131;" horiz-adv-x="558" 
d="M476 0h-375v713h255v-289h120v-424z" />
    <glyph glyph-name="Scaron" unicode="&#x160;" 
d="M1005 -1h-885v289h255v-136h255v273h-510v561h885v-272h-239v136h-391v-272h630v-579zM768 1273l-129 -188h-149l-130 188h130l72 -87l69 87h137z" />
    <glyph glyph-name="scaron" unicode="&#x161;" horiz-adv-x="924" 
d="M844 -1h-743v133h363v145h-363v436h611v-149h-364v-138h496v-427zM686 985l-129 -188h-149l-130 188h130l72 -87l69 87h137z" />
    <glyph glyph-name="Ydieresis" unicode="&#x178;" horiz-adv-x="1227" 
d="M1221 463h-279v-464h-407v464h-427v605h279v-439h555v439h279v-605zM902 1088h-191v156h191v-156zM494 1088h-191v156h191v-156z" />
    <glyph glyph-name="circumflex" unicode="&#x2c6;" horiz-adv-x="1041" 
d="M696 793h-137l-69 87l-72 -87h-130l130 188h149z" />
    <glyph glyph-name="caron" unicode="&#x2c7;" horiz-adv-x="1041" 
d="M696 985l-129 -188h-149l-130 188h130l72 -87l69 87h137z" />
    <glyph glyph-name="ring" unicode="&#x2da;" horiz-adv-x="640" 
d="M550 603h-440v385h440v-385zM412 894h-165v-178h164z" />
    <glyph glyph-name="tilde" unicode="&#x2dc;" horiz-adv-x="525" 
d="M470 976q-37 -170 -140 -170q-26 0 -48 8q-6 2 -42 19q-16 10 -27.5 14t-18.5 4q-22 0 -33.5 -9t-23.5 -35h-87q22 90 55.5 130.5t86.5 40.5q25 0 87 -28q30 -14 53 -16q19 0 29 8t23 34h86z" />
    <glyph glyph-name="quoteleft" unicode="&#x2018;" horiz-adv-x="580" 
d="M476 858h-45l-68 -82v-192h-242v257l129 145h226v-128z" />
    <glyph glyph-name="quoteright" unicode="&#x2019;" horiz-adv-x="628" 
d="M493 790l-140 -157h-245v138h49l74 89v208h262v-278z" />
    <glyph glyph-name="quotedblleft" unicode="&#x201c;" horiz-adv-x="1000" 
d="M900 857h-45l-68 -82v-192h-242v257l129 145h226v-128zM476 858h-45l-68 -82v-192h-242v257l129 145h226v-128z" />
    <glyph glyph-name="quotedblright" unicode="&#x201d;" horiz-adv-x="1000" 
d="M905 729l-129 -145h-226v128h45l68 82v192h242v-257zM455 729l-129 -145h-226v128h45l68 82v192h242v-257z" />
    <glyph glyph-name="trademark" unicode="&#x2122;" horiz-adv-x="1744" 
d="M1663 395h-153v511h-225v-511h-164v511h-224v-174h71v-337h-224v592h919v-592zM676 894h-236v-163h72v-337h-226v500h-226v93h616v-93z" />
    <glyph glyph-name="fraction" unicode="&#x2215;" horiz-adv-x="1350" 
d="M1202 852l-977 -853h-105v135l977 853h105v-135z" />
    <glyph glyph-name="fi" unicode="&#xf001;" horiz-adv-x="1350" 
d="M1558 149h-66v-150h-225v234h-280v329h150v-225h195v225h160v-309h66v-104z" />
  </font>
</defs>
</svg>
